:FULLY-SPECIFIED
:FORCE-ALL-JOINTS-BE-3DOF
:DEGREES
1
root -2.95645 16.8291 -36.2757 3.79203 -0.409345 -2.77144
lfemur -18.1857 -3.85478 -7.37129
ltibia 37.6337 0 0
lfoot -17.8071 6.78532 0
ltoes -26.1578 0 0
rfemur -19.1521 0.15077 14.7318
rtibia 40.3652 0 0
rfoot -23.1652 -2.86285 0
rtoes -21.0274 0 0
lowerback 7.02591 2.55716 -1.97249
upperback -3.14202 3.31583 1.27229
thorax -7.43554 1.75645 1.99661
lowerneck -4.68188 -4.04088 -6.84108
upperneck 4.69893 -5.30737 6.47589
head 2.76948 -2.5844 3.14763
lclavicle 1.91563e-15 -9.24349e-15 0
lhumerus -27.0689 -5.33108 89.6453
lradius 25.7364 0 0
lwrist -30.6252 0 0
lhand -28.8405 29.9909 0
lfingers 7.12502 0 0
lthumb -2.19771 59.9594 0
rclavicle 1.91563e-15 -9.24349e-15 0
rhumerus -32.8355 4.71181 -81.727
rradius 32.9783 0 0
rwrist 3.84135 0 0
rhand -24.1523 -25.0894 0
rfingers 7.12502 0 0
rthumb 2.33029 -55.0564 0
2
root -2.94969 16.8267 -36.2745 3.78749 -0.270218 -2.75308
lfemur -18.1628 -3.84594 -7.39135
ltibia 37.6543 -0 0
lfoot -17.8226 6.81737 -0.00278109
ltoes -26.1289 0 0
rfemur -19.2063 0.143682 14.7236
rtibia 40.3923 -0 0
rfoot -23.128 -2.84323 0.00410283
rtoes -21.0103 0 0
lowerback 7.04309 2.55139 -1.98557
upperback -3.13784 3.30684 1.2735
thorax -7.43986 1.75264 2.00727
lowerneck -4.68216 -4.03784 -6.8358
upperneck 4.70104 -5.30326 6.46789
head 2.76956 -2.58244 3.14419
lclavicle 1.90153e-15 -9.22769e-15 1.22674e-33
lhumerus -27.0197 -5.39742 89.664
lradius 25.7791 -0 0
lwrist -30.6024 0 0
lhand -28.8353 30.0089 0.000517337
lfingers 7.12502 -0 0
lthumb -2.19271 59.9774 0.00050005
rclavicle 1.90153e-15 -9.22769e-15 1.22674e-33
rhumerus -32.7834 4.75374 -81.716
rradius 33.1132 -0 0
rwrist 3.76626 0 0
rhand -23.9749 -25.0754 0.021075
rfingers 7.12502 -0 0
rthumb 2.41867 -55.1076 -0.028435
3
root -2.9428 16.8242 -36.2733 3.7829 -0.128534 -2.73439
lfemur -18.1395 -3.83693 -7.41178
ltibia 37.6752 -0 0
lfoot -17.8384 6.85002 -0.00560452
ltoes -26.0995 0 0
rfemur -19.2614 0.136439 14.7153
rtibia 40.4199 -0 0
rfoot -23.0902 -2.82325 0.00826231
rtoes -20.9929 0 0
lowerback 7.06059 2.54551 -1.99889
upperback -3.13358 3.29767 1.27474
thorax -7.44427 1.74876 2.01812
lowerneck -4.68244 -4.03475 -6.83042
upperneck 4.70317 -5.29907 6.45975
head 2.76964 -2.58045 3.14069
lclavicle 1.88729e-15 -9.21167e-15 2.45058e-33
lhumerus -26.9695 -5.465 89.6829
lradius 25.8225 -0 0
lwrist -30.5792 0 0
lhand -28.8301 30.0273 0.00104165
lfingers 7.12502 -0 0
lthumb -2.18762 59.9958 0.00100684
rclavicle 1.88729e-15 -9.21167e-15 2.45058e-33
rhumerus -32.7304 4.79645 -81.7047
rradius 33.2507 -0 0
rwrist 3.68984 0 0
rhand -23.7942 -25.0611 0.0426637
rfingers 7.12502 -0 0
rthumb 2.50851 -55.158 -0.0565042
4
root -2.9358 16.8217 -36.272 3.77829 0.0156925 -2.71537
lfemur -18.1158 -3.82775 -7.43258
ltibia 37.6966 -0 0
lfoot -17.8545 6.88326 -0.00846948
ltoes -26.0695 0 0
rfemur -19.3176 0.12904 14.7068
rtibia 40.4481 -0 0
rfoot -23.0518 -2.80291 0.0124773
rtoes -20.9753 0 0
lowerback 7.07843 2.53953 -2.01246
upperback -3.12924 3.28834 1.27599
thorax -7.44876 1.7448 2.02917
lowerneck -4.68273 -4.03159 -6.82494
upperneck 4.70534 -5.2948 6.45146
head 2.76972 -2.57841 3.13713
lclavicle 1.87289e-15 -9.19543e-15 3.67145e-33
lhumerus -26.9184 -5.53383 89.7021
lradius 25.8667 -0 0
lwrist -30.5555 0 0
lhand -28.8247 30.0459 0.0015728
lfingers 7.12502 -0 0
lthumb -2.18244 60.0145 0.00152025
rclavicle 1.87289e-15 -9.19543e-15 3.67145e-33
rhumerus -32.6765 4.83994 -81.6933
rradius 33.3906 -0 0
rwrist 3.61208 0 0
rhand -23.6105 -25.0462 0.0647589
rfingers 7.12502 -0 0
rthumb 2.5998 -55.2078 -0.0842117
5
root -2.92867 16.8192 -36.2707 3.77363 0.162445 -2.69603
lfemur -18.0917 -3.81839 -7.45375
ltibia 37.7183 -0 0
lfoot -17.8708 6.91708 -0.0113752
ltoes -26.039 0 0
rfemur -19.3748 0.121487 14.6982
rtibia 40.4768 -0 0
rfoot -23.0127 -2.78221 0.0167468
rtoes -20.9573 0 0
lowerback 7.09659 2.53345 -2.02627
upperback -3.12482 3.27884 1.27727
thorax -7.45333 1.74078 2.04041
lowerneck -4.68302 -4.02837 -6.81937
upperneck 4.70755 -5.29044 6.44303
head 2.7698 -2.57634 3.1335
lclavicle 1.85834e-15 -9.17897e-15 4.88924e-33
lhumerus -26.8663 -5.60389 89.7216
lradius 25.9116 -0 0
lwrist -30.5315 0 0
lhand -28.8192 30.0649 0.00211064
lfingers 7.12502 -0 0
lthumb -2.17718 60.0334 0.00204012
rclavicle 1.85834e-15 -9.17897e-15 4.88924e-33
rhumerus -32.6217 4.8842 -81.6815
rradius 33.5331 -0 0
rwrist 3.533 0 0
rhand -23.4236 -25.031 0.0873536
rfingers 7.12502 -0 0
rthumb 2.69253 -55.2568 -0.111562
